<?xml version="1.0" standalone="no"?>
<!DOCTYPE svg PUBLIC "-//W3C//DTD SVG 20010904//EN"
 "http://www.w3.org/TR/2001/REC-SVG-20010904/DTD/svg10.dtd">
<svg version="1.0" xmlns="http://www.w3.org/2000/svg"
        id="logo"
        viewBox="0 0 100 150"
      >
        <g
          transform="translate(0,170) scale(0.1,-0.1)"
          stroke="#ff0000"
          fill="none"
          strokeWidth="2"
        >
          <path
            d="M814 1306 c-53 -23 -484 -511 -484 -548 0 -18 60 -83 243 -265 260
							-258 269 -264 346 -243 37 10 92 63 464 446 l137 142 0 49 c0 51 -16 75 -67
							102 -30 15 -526 15 -556 0 -25 -13 -167 -150 -167 -161 0 -4 100 -9 223 -10
							l222 -3 3 -25 c2 -21 -21 -49 -131 -158 -167 -165 -161 -164 -285 -54 -126
							114 -162 156 -162 192 0 25 20 52 108 148 142 153 183 188 229 201 22 6 146
							11 298 11 301 0 273 -8 400 113 l80 76 -435 0 c-341 0 -442 -3 -466 -13z"
          />
          <path
            d="M160 925 c54 -54 82 -75 100 -75 24 0 60 31 139 123 l24 27 -169 0
							-168 0 74 -75z"
          />
        </g>
      </svg>
